<?xml version="1.0" encoding="UTF-8" standalone="no"?>
<!DOCTYPE svg PUBLIC "-//W3C//DTD SVG 1.1//EN" "http://www.w3.org/Graphics/SVG/1.1/DTD/svg11.dtd">
<!-- Created with Vectornator (http://vectornator.io/) -->
<svg height="100%" stroke-miterlimit="10" style="fill-rule:nonzero;clip-rule:evenodd;stroke-linecap:round;stroke-linejoin:round;" version="1.1" viewBox="0 0 80 80" width="100%" xml:space="preserve" xmlns="http://www.w3.org/2000/svg" xmlns:vectornator="http://vectornator.io" xmlns:xlink="http://www.w3.org/1999/xlink">
<defs>
<linearGradient gradientTransform="matrix(0.802189 0 0 0.70805 -0.00361718 3.92537)" gradientUnits="userSpaceOnUse" id="LinearGradient" x1="46.6667" x2="88.8653" y1="-8.97795e-07" y2="89.4466">
<stop offset="0" stop-color="#e6ad10"/>
<stop offset="1" stop-color="#c87e0e"/>
</linearGradient>
<linearGradient gradientTransform="matrix(0.802189 0 0 0.70805 -0.00361718 3.92537)" gradientUnits="userSpaceOnUse" id="LinearGradient_2" x1="31.9974" x2="67.4859" y1="24" y2="92.8262">
<stop offset="0" stop-color="#f6d751"/>
<stop offset="1" stop-color="#e6ad10"/>
</linearGradient>
<linearGradient gradientTransform="matrix(0.802189 0 0 0.70805 -0.00361718 3.92537)" gradientUnits="userSpaceOnUse" id="LinearGradient_3" x1="11.9974" x2="31.6083" y1="48" y2="94.4775">
<stop offset="0" stop-color="#f9e589"/>
<stop offset="1" stop-color="#f6d751"/>
</linearGradient>
</defs>
<clipPath id="ArtboardFrame">
<rect height="80" width="80" x="0" y="0"/>
</clipPath>
<g clip-path="url(#ArtboardFrame)" id="Layer-1" vectornator:layerName="Layer 1">
<g opacity="1">
<clipPath id="ClipPath">
<path d="M-0.00361718 3.92537L77.0066 3.92537L77.0066 3.92537L77.0066 71.8982L77.0066 71.8982L-0.00361718 71.8982L-0.00361718 71.8982L-0.00361718 3.92537L-0.00361718 3.92537Z" fill-rule="evenodd"/>
</clipPath>
<g clip-path="url(#ClipPath)">
<clipPath id="ClipPath_2">
<path d="M41.7102 6.75757C41.7102 5.19339 43.1469 3.92537 44.919 3.92537L64.1715 3.92537C65.9437 3.92537 67.3803 5.19339 67.3803 6.75757L67.3803 69.066C67.3803 70.6301 65.9437 71.8982 64.1715 71.8982L12.8314 71.8982C11.0593 71.8982 9.62266 70.6301 9.62266 69.066L9.62266 40.744C9.62266 39.1798 11.0593 37.9118 12.8314 37.9118L25.6665 37.9118L25.6665 23.7508C25.6665 22.1866 27.1032 20.9186 28.8753 20.9186L41.7102 20.9186L41.7102 6.75757Z" fill-rule="evenodd"/>
</clipPath>
<g clip-path="url(#ClipPath_2)">
<path d="M67.3803 3.92537L67.3803 71.8982L41.7102 71.8982L41.7102 3.92537L67.3803 3.92537Z" fill="url(#LinearGradient)" fill-rule="evenodd" opacity="1" stroke="none"/>
<path d="M51.3365 24.034L51.3365 72.1814L25.6664 72.1814L25.6664 21.2018L48.1277 21.2018C49.8999 21.2018 51.3365 22.4698 51.3365 24.034Z" fill="#000000" fill-opacity="0.2" fill-rule="evenodd" opacity="1" stroke="none"/>
<path d="M51.3365 25.1669L51.3365 73.3143L25.6664 73.3143L25.6664 22.3347L48.1277 22.3347C49.8999 22.3347 51.3365 23.6027 51.3365 25.1669Z" fill="#000000" fill-opacity="0.18" fill-rule="evenodd" opacity="1" stroke="none"/>
<path d="M51.3365 23.7508L51.3365 71.8982L25.6664 71.8982L25.6664 20.9186L48.1277 20.9186C49.8999 20.9186 51.3365 22.1866 51.3365 23.7508Z" fill="url(#LinearGradient_2)" fill-rule="evenodd" opacity="1" stroke="none"/>
<path d="M9.62266 37.9118L9.62266 71.8982L35.2927 71.8982L35.2927 40.744C35.2927 39.1798 33.8561 37.9118 32.084 37.9118L9.62266 37.9118Z" fill="url(#LinearGradient_3)" fill-rule="evenodd" opacity="1" stroke="none"/>
</g>
</g>
</g>
<path d="M78.1278 60.977L74.7388 60.1253C74.5306 59.4823 74.2703 58.8566 73.958 58.2656C74.4611 57.4139 75.5368 55.6238 75.5368 55.6238C75.7277 55.2761 75.6757 54.8416 75.3981 54.5635L72.9517 52.0954C72.6741 51.8174 72.223 51.7652 71.8933 51.9738L69.2561 53.5554C68.6489 53.2426 68.0243 52.9818 67.3997 52.7733L66.5495 49.3783C66.4628 48.9958 66.1158 48.7178 65.7168 48.7178L62.2468 48.7178C61.8478 48.7178 61.5007 48.9958 61.414 49.3782C61.414 49.3782 60.8241 51.7478 60.5639 52.7732C59.8872 52.9992 59.2279 53.2772 58.6033 53.6249L55.862 51.9737C55.515 51.7651 55.0812 51.8173 54.8036 52.0954L52.3573 54.5635C52.0624 54.8416 52.0103 55.2761 52.2184 55.6238L53.9188 58.4568C53.6411 58.9956 53.4156 59.5518 53.2248 60.1253L49.8358 60.977C49.454 61.064 49.1765 61.4115 49.1765 61.8113L49.1765 65.2875C49.1765 65.6872 49.454 66.0349 49.8358 66.1217L53.2248 66.9734C53.433 67.6165 53.7106 68.2596 54.0229 68.868L52.5135 71.3882C52.3053 71.7358 52.3573 72.1703 52.6522 72.4658L55.0986 74.9165C55.3762 75.1946 55.8099 75.2467 56.157 75.0381C56.157 75.0381 57.8572 74.03 58.6902 73.526C59.2973 73.8563 59.9218 74.1169 60.5639 74.3256L61.414 77.7206C61.5008 78.1029 61.8478 78.3811 62.2468 78.3811L65.7168 78.3811C66.1158 78.3811 66.4628 78.1029 66.5495 77.7206L67.3997 74.3256C68.059 74.1169 68.7009 73.8389 69.3256 73.5086C70.1757 74.0126 71.8933 75.0381 71.8933 75.0381C72.223 75.2467 72.6741 75.1946 72.9517 74.9165L75.3981 72.4658C75.6756 72.1703 75.7277 71.7358 75.5368 71.3882L73.9754 68.7984C74.2877 68.2075 74.5306 67.5991 74.7388 66.9734L78.1278 66.1217C78.5095 66.0348 78.7871 65.6872 78.7871 65.2875L78.7871 61.8113C78.7871 61.4115 78.5096 61.064 78.1278 60.977ZM63.9818 69.6327C60.6332 69.6327 57.9093 66.9039 57.9093 63.5494C57.9093 60.1949 60.6332 57.4661 63.9818 57.4661C67.3303 57.4661 70.0543 60.1949 70.0543 63.5494C70.0543 66.9039 67.3303 69.6327 63.9818 69.6327Z" fill="#a1a7b3" fill-rule="evenodd" opacity="1" stroke="none"/>
<path d="M78.7871 61.8113L78.7871 65.2875C78.7871 65.6872 78.5096 66.0349 78.1278 66.1217L74.7388 66.9734C74.5306 67.5991 74.2877 68.2075 73.9754 68.7984L75.5368 71.3883C75.7277 71.7358 75.6757 72.1703 75.3981 72.4659L72.9517 74.9165C72.6741 75.1947 72.223 75.2468 71.8933 75.0382C71.8933 75.0382 70.1757 74.0127 69.3256 73.5087C68.7009 73.8389 68.059 74.1169 67.3997 74.3256L66.5495 77.7206C66.4628 78.103 66.1158 78.3811 65.7168 78.3811L63.9818 78.3811L63.9818 69.6327C67.3303 69.6327 70.0543 66.9039 70.0543 63.5494C70.0543 60.1949 67.3303 57.4661 63.9818 57.4661L63.9818 48.7178L65.7168 48.7178C66.1158 48.7178 66.4628 48.9958 66.5495 49.3782L67.3997 52.7733C68.0243 52.9819 68.6489 53.2426 69.2561 53.5554L71.8934 51.9737C72.223 51.7651 72.6741 51.8173 72.9517 52.0954L75.3981 54.5634C75.6757 54.8416 75.7278 55.2761 75.5369 55.6237C75.5369 55.6237 74.4612 57.4139 73.9581 58.2655C74.2704 58.8565 74.5307 59.4822 74.7388 60.1253L78.1278 60.977C78.5096 61.064 78.7871 61.4115 78.7871 61.8113Z" fill="#979ca7" fill-rule="evenodd" opacity="1" stroke="none"/>
</g>
</svg>
